PathFileType	4	(X/Y/Z)	TVC_26_BWA6_walk_RCNL2025.trc
DataRate	CameraRate	NumFrames	NumMarkers	Units	OrigDataRate	OrigDataStartFrame	OrigNumFrames
100	100	12	27	mm	100	1	588
Frame#	Time	R_Shoulder			L_Shoulder			C7			J_Notch			R_Elbow			L_Elbow			R_Wrist			L_Wrist			R_Asis			L_Asis			R_Psis			L_Psis			Sacral			Thoracic			Sternum			R_Thigh_Lateral			R_Knee_Lateral			R_Shank_Lateral			R_Ankle_Lateral			R_Heel			R_Toe			L_Thigh_Lateral			L_Knee_Lateral			L_Shank_Lateral			L_Ankle_Lateral			L_Heel			L_Toe		
		X1	Y1	Z1	X2	Y2	Z2	X3	Y3	Z3	X4	Y4	Z4	X5	Y5	Z5	X6	Y6	Z6	X7	Y7	Z7	X8	Y8	Z8	X9	Y9	Z9	X10	Y10	Z10	X11	Y11	Z11	X12	Y12	Z12	X13	Y13	Z13	X14	Y14	Z14	X15	Y15	Z15	X16	Y16	Z16	X17	Y17	Z17	X18	Y18	Z18	X19	Y19	Z19	X20	Y20	Z20	X21	Y21	Z21	X22	Y22	Z22	X23	Y23	Z23	X24	Y24	Z24	X25	Y25	Z25	X26	Y26	Z26	X27	Y27	Z27
1	0.00000000	-749.778137	1354.830322	113.488579	-723.618591	1367.678345	-207.051315	-817.958313	1392.812378	-45.410908	-659.778992	1311.048096	-32.287067	-741.887695	1012.171814	220.829498	-726.540833	1044.429688	-324.839142	-650.710632	817.393250	242.896141	-605.703857	859.115265	-274.790779	-642.869385	959.527649	131.295914	-603.546509	957.076660	-153.664047	-844.010742	943.016785	30.190409	-818.178406	936.097473	-115.601364	-831.094574	939.557129	-42.705478	-848.219360	1107.819458	-60.027744	-588.465149	1079.230835	-29.885437	-641.108398	567.739136	153.259766	-590.213257	448.212646	90.869591	-626.953979	263.702209	118.257454	-650.581116	68.436989	35.970310	-693.586670	55.649734	-18.117384	-513.037354	40.604866	22.445391	-607.639221	583.177429	-218.384781	-655.160095	455.602356	-167.808899	-791.324341	283.163025	-203.241806	-929.191589	140.596664	-128.090851	-972.767639	157.991028	-74.187134	-839.551392	39.565231	-109.647697
2	0.01000000	-746.896118	1355.295044	114.371574	-721.298340	1368.087036	-206.049576	-814.606201	1393.121460	-44.899590	-657.177002	1311.445190	-31.361929	-737.435974	1012.842041	222.162369	-724.338135	1044.869385	-323.808319	-643.606842	819.403564	243.440269	-602.686310	860.045166	-273.877594	-640.370850	959.783020	131.981979	-601.276245	957.539978	-152.716980	-841.678955	943.724792	31.029665	-815.765442	936.558105	-114.727737	-828.722198	940.141449	-41.849036	-845.695374	1108.365601	-58.971733	-586.058960	1079.615112	-28.786070	-640.451904	567.517334	154.197083	-590.430115	448.263031	91.346977	-627.661072	263.487671	118.621750	-650.718262	68.421883	36.125717	-693.409729	55.437077	-18.242113	-513.059265	40.580154	22.580944	-602.832886	584.367310	-219.180389	-648.300659	455.893646	-168.687714	-785.116455	283.917267	-203.750381	-923.887817	142.919052	-128.443619	-966.998169	160.403748	-74.215782	-835.375427	40.857471	-111.498703
3	0.02000000	-743.231445	1355.846069	115.490105	-718.335266	1368.601196	-204.803818	-810.569458	1393.586792	-44.088116	-653.895813	1311.919678	-30.203800	-731.825195	1013.656677	223.816666	-721.621887	1045.391479	-322.521790	-634.831421	821.834351	244.147804	-598.949402	861.164307	-272.718658	-637.300842	960.056946	132.833023	-598.425232	958.001526	-151.568954	-838.771851	944.569641	32.054317	-812.755066	937.100220	-113.676071	-825.763458	940.834930	-40.810877	-842.556641	1109.057861	-57.672863	-583.028381	1080.039062	-27.488211	-639.422485	567.232544	155.325714	-590.627075	448.306824	91.893631	-628.447205	263.250519	119.017441	-650.893982	68.407181	36.312202	-693.277039	55.264385	-18.313667	-513.092285	40.564690	22.750648	-596.841064	585.930176	-220.114700	-639.772095	456.424347	-169.744019	-777.281921	284.971069	-204.401657	-916.828003	145.514084	-128.876938	-959.365601	162.885681	-74.172905	-829.351868	42.477737	-114.094627
4	0.03000000	-738.940491	1356.442749	116.811195	-714.823975	1369.199219	-203.373489	-806.045776	1394.196411	-42.977112	-650.064270	1312.440918	-28.863466	-725.278931	1014.557556	225.714203	-718.521240	1045.961548	-321.025696	-624.756470	824.597961	244.981552	-594.678131	862.400757	-271.356110	-633.826477	960.308655	133.816895	-595.107483	958.393250	-150.293167	-835.427002	945.496887	33.203049	-809.293640	937.700317	-112.506157	-822.360321	941.598602	-39.651554	-838.947388	1109.871338	-56.197407	-579.494263	1080.451782	-26.087362	-637.941895	566.930908	156.570999	-590.762939	448.335388	92.465248	-629.230286	263.019165	119.401787	-651.098816	68.391548	36.516441	-693.244690	55.184689	-18.281820	-513.140991	40.567657	22.950363	-589.938843	587.834290	-221.115631	-629.978516	457.258484	-170.908997	-768.128784	286.340088	-205.181870	-908.084839	148.090057	-129.381378	-949.978577	165.062180	-74.050201	-821.342896	44.337666	-117.430061
5	0.04000000	-734.213257	1357.042969	118.292061	-710.883728	1369.854248	-201.823746	-801.231506	1394.918335	-41.607395	-645.838318	1312.975220	-27.401997	-718.074036	1015.476257	227.764404	-715.175049	1046.547363	-319.370605	-613.782471	827.623322	245.880806	-590.085266	863.679016	-269.839882	-630.139404	960.497070	134.899872	-591.453979	958.665833	-148.972885	-831.809082	946.450623	34.404388	-805.555481	938.345459	-111.281723	-818.682281	942.398041	-38.438667	-835.033936	1110.775635	-54.619907	-575.602966	1080.802979	-24.686457	-635.971558	566.680115	157.847839	-590.806519	448.343445	93.022423	-629.939758	262.816956	119.741951	-651.317200	68.371483	36.723137	-693.337402	55.216885	-18.129974	-513.210876	40.596958	23.176336	-582.450867	590.028442	-222.106003	-619.386353	458.437042	-172.105881	-758.024170	288.021423	-206.077148	-897.803833	150.340195	-129.959518	-939.027649	166.585922	-73.880783	-811.330811	46.305973	-121.407455
6	0.05000000	-729.201172	1357.610352	119.876968	-706.629333	1370.541748	-200.207047	-796.304016	1395.716431	-40.025745	-641.363037	1313.492554	-25.874514	-710.475403	1016.355286	229.884445	-711.697449	1047.128906	-317.603088	-602.271820	830.847076	246.782257	-585.362305	864.940491	-268.213051	-626.407104	960.594666	136.059357	-587.579529	958.805176	-147.683777	-828.069824	947.384644	35.591709	-801.700134	939.036743	-110.058578	-814.884979	943.210693	-37.233435	-830.965576	1111.742676	-53.006680	-571.490295	1081.059326	-23.375944	-633.558350	566.529785	159.081512	-590.745178	448.329742	93.540161	-630.536682	262.655884	120.024078	-651.529480	68.344353	36.917133	-693.524719	55.332088	-17.894953	-513.306091	40.656414	23.425346	-574.674072	592.451843	-223.018600	-608.405334	459.963165	-173.262329	-747.285645	289.977722	-207.075684	-886.147766	151.999939	-130.629913	-926.724670	167.201920	-73.741066	-799.392212	48.225418	-125.843803
7	0.06000000	-723.988831	1358.115112	121.497055	-702.160156	1371.245850	-198.557770	-791.418152	1396.557617	-38.264957	-636.755127	1313.970581	-24.321680	-702.694946	1017.161560	232.007370	-708.166138	1047.698853	-315.764069	-590.528534	834.203369	247.639519	-580.658630	866.153076	-266.508904	-622.742065	960.594360	137.289536	-583.572021	958.837280	-146.481628	-824.327209	948.266479	36.711113	-797.852417	939.787476	-108.877930	-811.089813	944.026978	-36.083408	-826.856750	1112.749023	-51.407986	-567.265320	1081.214722	-22.220448	-630.835938	566.491943	160.222046	-590.587219	448.296997	94.009834	-631.017822	262.539307	120.251831	-651.714966	68.311478	37.085102	-693.745789	55.477989	-17.638752	-513.425659	40.743252	23.692602	-566.838074	595.036194	-223.803070	-597.335571	461.794769	-174.313232	-736.122314	292.115601	-208.161819	-873.267883	152.873550	-131.420563	-913.270996	166.766876	-73.735275	-785.659119	49.935158	-130.495956
8	0.07000000	-718.613892	1358.539307	123.086082	-697.557312	1371.959961	-196.895294	-786.693665	1397.416016	-36.344280	-632.098816	1314.399780	-22.768600	-694.871094	1017.892395	234.082947	-704.624573	1048.260254	-313.888855	-578.785889	837.630249	248.429390	-576.076141	867.308380	-264.752213	-619.197083	960.511047	138.591110	-579.495789	958.823242	-145.392502	-820.659912	949.077881	37.724808	-794.094055	940.613342	-107.764565	-807.376984	944.845612	-35.019878	-822.783569	1113.776978	-49.855320	-563.008179	1081.288940	-21.249851	-627.974487	566.553040	161.246994	-590.357178	448.251831	94.435715	-631.410583	262.467133	120.440125	-651.861511	68.279724	37.222172	-693.952209	55.611134	-17.406593	-513.561157	40.847233	23.968903	-559.090332	597.706116	-224.427032	-586.364990	463.848389	-175.200180	-724.618835	294.281982	-209.307892	-859.294067	152.842224	-132.358475	-898.844543	165.242447	-73.971367	-770.286194	51.294926	-135.097214
9	0.08000000	-713.106628	1358.882935	124.602318	-692.884583	1372.683472	-195.229477	-782.202209	1398.277222	-34.278622	-627.448303	1314.781372	-21.227848	-687.072327	1018.569519	236.076706	-701.091248	1048.823486	-312.005676	-567.200867	841.075928	249.142494	-571.673462	868.406586	-262.958229	-615.778076	960.379272	139.955658	-575.398376	958.844604	-144.410278	-817.109741	949.814392	38.611954	-790.461121	941.520935	-106.729691	-803.785431	945.667664	-34.058868	-818.787476	1114.814453	-48.362602	-558.774719	1081.319946	-20.458326	-625.127136	566.690247	162.154236	-590.086426	448.203979	94.828888	-631.761536	262.439941	120.608131	-651.976807	68.260048	37.338928	-694.126343	55.710751	-17.212280	-513.699280	40.954628	24.241938	-551.502563	600.378418	-224.874527	-575.591553	466.019196	-175.873306	-712.756775	296.290894	-210.471954	-844.335388	151.862656	-133.462158	-883.596436	162.676620	-74.538002	-753.437073	52.201603	-139.392166
10	0.09000000	-707.521423	1359.163818	126.040703	-688.190979	1373.418335	-193.566147	-777.951599	1399.134399	-32.098145	-622.835693	1315.122559	-19.703880	-679.319580	1019.222717	237.969162	-697.570740	1049.402588	-310.133789	-555.856873	844.499786	249.769264	-567.477936	869.441589	-261.131958	-612.460449	960.247986	141.362778	-571.314575	958.983948	-143.503113	-813.687012	950.482971	39.367580	-786.946289	942.500244	-105.776299	-800.316650	946.491608	-33.204359	-814.881348	1115.852661	-46.930813	-554.601440	1081.351562	-19.813505	-622.400940	566.881226	162.952286	-589.804321	448.164093	95.201233	-632.121948	262.460541	120.773270	-652.084045	68.260689	37.454891	-694.273865	55.776630	-17.047668	-513.830566	41.055607	24.502455	-544.095093	602.962219	-225.140762	-565.049988	468.208405	-176.293442	-700.460327	297.964966	-211.605240	-828.483398	149.958923	-134.737122	-867.650940	159.179153	-75.489113	-735.283142	52.597527	-143.163177
11	0.10000000	-701.946472	1359.412354	127.430313	-683.514587	1374.166870	-191.911011	-773.873291	1399.975952	-29.868586	-618.281860	1315.431641	-18.197361	-671.615417	1019.873596	239.753922	-694.061707	1050.012207	-308.286407	-544.784424	847.872986	250.295753	-563.498840	870.398163	-259.270378	-609.205139	960.171692	142.787598	-567.267517	959.306580	-142.624771	-810.376465	951.097961	39.999657	-783.507935	943.522888	-104.904243	-796.942200	947.310425	-32.452293	-811.056458	1116.882324	-45.554554	-550.510864	1081.422852	-19.271025	-619.852966	567.108765	163.654053	-589.533325	448.140839	95.561501	-632.531799	262.531372	120.947395	-652.203979	68.280533	37.583794	-694.410339	55.822758	-16.896101	-513.953857	41.147396	24.747871	-536.861938	605.369446	-225.222992	-554.739868	470.342621	-176.429031	-687.645630	299.164307	-212.663971	-811.814880	147.208542	-136.174026	-851.108154	154.893082	-76.838173	-715.999634	52.476639	-146.249893
12	0.11000000	-696.484131	1359.660278	128.815933	-678.886719	1374.930664	-190.270782	-769.851868	1400.782349	-27.678602	-613.801819	1315.717896	-16.709665	-663.964050	1020.534790	241.432434	-690.559814	1050.664795	-306.477844	-533.991852	851.178314	250.710648	-559.735291	871.258545	-257.366806	-605.977478	960.199463	144.207901	-563.272461	959.848389	-141.728638	-807.144226	951.675476	40.525913	-780.085815	944.548462	-104.111908	-793.615021	948.111969	-31.792997	-807.288818	1117.891602	-44.228184	-546.513550	1081.560669	-18.784689	-617.501648	567.360107	164.274078	-589.285828	448.138306	95.914177	-633.010498	262.651764	121.136215	-652.345093	68.311333	37.728870	-694.552673	55.871021	-16.740461	-514.071655	41.230206	24.979462	-529.783325	607.532715	-225.113693	-544.653809	472.379761	-176.252472	-674.253662	299.798370	-213.616104	-794.393494	143.725769	-137.751251	-834.046265	149.970306	-78.560295	-695.753967	51.886032	-148.560989
